<?xml version="1.0" encoding="utf-8"?>
<!-- Generator: Adobe Illustrator 17.1.0, SVG Export Plug-In . SVG Version: 6.00 Build 0)  -->
<!DOCTYPE svg PUBLIC "-//W3C//DTD SVG 1.1//EN" "http://www.w3.org/Graphics/SVG/1.1/DTD/svg11.dtd">
<svg version="1.1" id="Layer_1" xmlns="http://www.w3.org/2000/svg" xmlns:xlink="http://www.w3.org/1999/xlink" x="0px" y="0px"
	 viewBox="0 0 640 480" enable-background="new 0 0 640 480" xml:space="preserve">
<image overflow="visible" width="626" height="626" xlink:href="../../../Icons+References/mobile-app-developing_318-33179.png.jpeg"  transform="matrix(0.7549 0 0 0.7549 837.5646 62.9968)">
</image>
<image overflow="visible" width="512" height="512" xlink:href="../../../Icons+References/sewing-needle-icon.png"  transform="matrix(0.923 0 0 0.923 837.5646 62.9968)">
</image>
<image overflow="visible" width="130" height="98" xlink:href="../../../Icons+References/Screen Shot 2016-04-08 at 2.47.45 am.png"  transform="matrix(4.9613 0 0 4.9613 837.5646 62.9968)">
</image>
<image overflow="visible" width="128" height="105" xlink:href="../../../Icons+References/Screen Shot 2016-04-08 at 2.47.39 am.png"  transform="matrix(4.2141 0 0 4.2141 837.5646 75.0987)">
</image>
<image overflow="visible" width="122" height="110" xlink:href="../../../Icons+References/Screen Shot 2016-04-08 at 2.47.32 am.png"  transform="matrix(4.4998 0 0 4.4998 830.0649 75.0987)">
</image>
<image overflow="visible" width="147" height="113" xlink:href="../../../Icons+References/Screen Shot 2016-04-08 at 2.47.29 am.png"  transform="matrix(4.898 0 0 4.898 819.5655 75.0987)">
</image>
<g>
	<path d="M331.6,283.7c46.3,0,92.7,0.5,139-0.3c17-0.3,24,5.6,23.2,22.7c-0.9,22.8-0.6,45.6-0.6,68.4c0,17.6-7.8,26.9-26.2,26.9
		c-89.2-0.1-178.4-0.2-267.6,0c-18.2,0-26.7-8.3-26.6-26.4c0.1-24.2,0.3-48.4-0.4-72.6c-0.4-14.9,6.7-19.1,20.3-19
		C239,283.9,285.3,283.7,331.6,283.7z"/>
	<path d="M449.4,179.2c44.9,6.3,44.9,6.3,44.2,54.6c-0.5,34.1-0.5,34.1-34.1,34.1c-86.3,0.1-172.6,0.2-258.9,0.2
		c-26.5,0-28.3-1.9-28.1-28.1c0.2-20,0.5-40,0.2-60.1c-0.2-15.3,6.4-24.3,21.5-28.3c86-23,171.9-46.3,257.8-69.7
		c15.7-4.3,26,0.9,29.9,16.4c4.6,17.9,14.8,38.4,9.7,53.4C487.5,164.1,464.5,170.1,449.4,179.2z M462,148.1
		c-23.1-43-36.1-48.7-62.3-28.6C420.8,166,433.6,164.9,462,148.1z M404.9,246.6c29.6,11,56.1-8.2,55-36.7c-0.1-3-3.7-8-6.4-8.5
		c-13.8-2.6-27.9-4.1-35.1,12.2C413.7,224.1,409.7,234.8,404.9,246.6z M393.1,164.6c-22.6-40.8-32.1-44.8-63-27.2
		C350,177.8,367,185.4,393.1,164.6z M300.3,199.9c-24,0.4-25.8,20.7-32.3,36.5c-5.4,13.4,2.6,17.6,14.1,17.5
		c21.5-0.2,28.1-16,33.6-33C320.3,206.6,315.2,199.9,300.3,199.9z M390.2,205.2c-27.7-14-46.8-3.3-52.1,43.1
		C370.7,258.3,379.6,251,390.2,205.2z M323.8,184.6c-12.9-38.6-33.7-48.3-59.9-27.7C275.2,190.1,296.9,200.2,323.8,184.6z
		 M250.8,200.1c-6.4-4.9-14.3-14.6-24.3-17.9c-12-3.8-25.7,10.7-24.8,24.2c0.9,13.9,8.2,24.3,22.9,24.8
		C240.3,231.8,247.9,221.5,250.8,200.1z"/>
	<path fill="#FFFFFF" d="M462,148.1c-28.5,16.8-41.3,17.9-62.3-28.6C426,99.3,439,105.1,462,148.1z"/>
	<path fill="#FFFFFF" d="M404.9,246.6c4.8-11.8,8.8-22.5,13.5-33c7.2-16.3,21.4-14.8,35.1-12.2c2.7,0.5,6.3,5.5,6.4,8.5
		C461,238.5,434.5,257.7,404.9,246.6z"/>
	<path fill="#FFFFFF" d="M393.1,164.6c-26.1,20.8-43.1,13.2-63-27.2C361,119.8,370.5,123.8,393.1,164.6z"/>
	<path fill="#FFFFFF" d="M300.3,199.9c14.9,0.1,20,6.7,15.4,21c-5.5,17-12,32.8-33.6,33c-11.5,0.1-19.5-4.1-14.1-17.5
		C274.5,220.5,276.4,200.2,300.3,199.9z"/>
	<path fill="#FFFFFF" d="M390.2,205.2c-10.6,45.8-19.5,53-52.1,43.1C343.5,202,362.5,191.2,390.2,205.2z"/>
	<path fill="#FFFFFF" d="M323.8,184.6c-26.9,15.6-48.6,5.5-59.9-27.7C290.1,136.3,311,145.9,323.8,184.6z"/>
	<path fill="#FFFFFF" d="M250.8,200.1c-3,21.4-10.5,31.7-26.3,31.2c-14.7-0.5-22-10.9-22.9-24.8c-0.9-13.5,12.8-28.1,24.8-24.2
		C236.5,185.5,244.4,195.2,250.8,200.1z"/>
</g>
</svg>
