<?xml version="1.0" encoding="utf-8"?>
<!-- Generator: Adobe Illustrator 17.1.0, SVG Export Plug-In . SVG Version: 6.00 Build 0)  -->
<!DOCTYPE svg PUBLIC "-//W3C//DTD SVG 1.1//EN" "http://www.w3.org/Graphics/SVG/1.1/DTD/svg11.dtd">
<svg version="1.1" id="Layer_1" xmlns="http://www.w3.org/2000/svg" xmlns:xlink="http://www.w3.org/1999/xlink" x="0px" y="0px"
	 viewBox="0 0 640 480" enable-background="new 0 0 640 480" xml:space="preserve">
<image overflow="visible" width="626" height="626" xlink:href="../../../Icons+References/mobile-app-developing_318-33179.png.jpeg"  transform="matrix(0.7549 0 0 0.7549 837.5646 62.9968)">
</image>
<g>
	<path d="M63,472.7c19.7-29.1,43.3-55.1,67-80.9c53.3-58.1,107.3-115.7,161.1-173.5c23.5-25.2,47.2-50.2,70.5-75.6
		c8.9-9.7,17.2-20.1,24.9-30.9c13.2-18.3,25.7-37.2,38.5-55.8c0.8-1.1,1.4-2.3,2.8-4.6c-12.5-3.8-24.2-7.7-36.2-10.8
		c-18.3-4.7-37-5.6-55.8-6.3c-9.8-0.4-16-8.5-13.8-17.6c1.6-6.6,7.3-11,15.1-11c35.7,0.3,70.4,6,103.1,20.9c3.6,1.6,5.6,1.4,8.5-1.5
		C460,14.1,473.2,6,489.2,3.7c30.2-4.3,52.7,22.8,43.3,51.9c-3.5,11-8.9,20.9-16.7,29.4c-1.7,1.9-2,3.2-0.6,5.5
		c24.2,40.3,21.3,80.1-2.4,119.4c-10.4,17.4-24.3,32.1-38.3,46.6c-14.2,14.7-28.6,29.3-42.1,44.6c-12.9,14.5-23.4,30.7-26.4,50.4
		c-4.1,26.6,0.3,51.1,22.1,69.4c12.4,10.4,27.5,15.3,43.2,18.5c14.7,3,29.6,3.1,44.5,2.7c10.4-0.3,17.3,7.5,15.4,17
		c-1.2,6.1-6,11-12.8,11.4c-35,2.2-68.9-1.6-99.4-20.7c-25.2-15.8-38.5-39.3-42.2-68.6c-4.2-32.5,4.8-61.3,24.5-86.8
		c10.5-13.6,22.1-26.4,33.9-38.9c16.8-17.8,34.8-34.3,49-54.5c15.6-22.1,23-46.2,16.2-73.1c-1.9-7.5-5.4-14.5-8.4-22.1
		c-1.6,0.8-2.2,1-2.6,1.3c-24.3,16.8-49.3,32.7-72.6,50.6c-18.9,14.6-36.2,31.4-53.8,47.7c-69.2,64.3-137.8,129.1-207.4,193
		c-26.9,24.7-55.7,47.4-83.7,71c-2.2,1.9-4.8,3.3-7.2,4.9C64.3,473.9,63.6,473.3,63,472.7z M445.5,61.2
		c-7.4,18.3,3.2,33.8,21.6,33.1c19.1-0.8,40.9-21.4,42.8-40.5c1.4-14-5.3-24.4-16.8-26c-11.7-1.6-21.6,2.5-31.1,9.9
		c1.9,1.4,3.5,2.5,5.1,3.6c4.8,3.6,9.7,7,14.2,11c5,4.4,6.2,10.9,3.9,16.3c-4.1,9.5-14.6,11.5-23.4,4.7
		C456.4,69.3,451.1,65.4,445.5,61.2z"/>
</g>
<image overflow="visible" width="130" height="98" xlink:href="../../../Icons+References/Screen Shot 2016-04-08 at 2.47.45 am.png"  transform="matrix(4.9613 0 0 4.9613 798.5665 332.9833)">
</image>
<image overflow="visible" width="128" height="105" xlink:href="../../../Icons+References/Screen Shot 2016-04-08 at 2.47.39 am.png"  transform="matrix(4.2141 0 0 4.2141 732.5698 324.1241)">
</image>
<image overflow="visible" width="122" height="110" xlink:href="../../../Icons+References/Screen Shot 2016-04-08 at 2.47.32 am.png"  transform="matrix(4.4998 0 0 4.4998 819.5655 406.0895)">
</image>
<g>
	<path d="M-331.2,674.2c-14.4-21.5-34.2-24.8-56.5-24.5c-28.9,0.4-51.4-16.6-59.2-42.1c-8.1-26.8,2.1-54.9,25.7-70.7
		c36-24,81.6-4.8,91.1,37.1c2.7,11.9,10,23.9,18.1,33.4c56.5,67.2,130.7,110.7,206.4,151.9c7.1,3.9,13.9,8.5,20.7,12.9
		c1.2,0.8,1.7,2.5,2.6,3.8c-18.3,27.5-42.3,34.6-71,19.3c-34.5-18.5-68.1-38.5-102.2-57.5c-38.6-21.6-63.7-9.8-71.9,33.4
		c-5.3,28.3-23.3,48.3-47.5,52.9c-24.6,4.7-52.6-7.5-65.6-28.6c-13.4-21.9-13.5-51.7,5.2-70.4c11-11,28-19.3,43.5-21.6
		C-365.1,699.4-352.3,696.1-331.2,674.2z M-358.6,760.7c-0.8-15.7-8.7-27.8-27.7-28.1c-19-0.4-31.6,9.8-32.3,28.9
		c-0.7,18.8,10.6,30.3,29.7,31.7C-371.3,794.6-358.8,781.4-358.6,760.7z M-358.6,588.4c-0.4-18.2-14-32.8-30.3-31
		c-18.7,2.1-29.3,13.7-29.9,32.5c-0.6,16.4,15.4,30.4,32.7,29C-367.9,617.4-358.4,607-358.6,588.4z"/>
	<path d="M-80,572.5c-45.6,27.1-88.1,54.4-132.6,78c-23.9,12.6-24.9-16.5-34.8-27.5c-2.4-2.7,2.9-17.8,8.5-21.4
		c25.4-16.2,51.9-30.9,78.4-45.2C-127.3,538.4-111,541.6-80,572.5z"/>
</g>
<g>
	<path d="M-268.4,354.9c46.3,0,92.7,0.5,139-0.3c17-0.3,24,5.6,23.2,22.7c-0.9,22.8-0.6,45.6-0.6,68.4c0,17.6-7.8,26.9-26.2,26.9
		c-89.2-0.1-178.4-0.2-267.6,0c-18.2,0-26.7-8.3-26.6-26.4c0.1-24.2,0.3-48.4-0.4-72.6c-0.4-14.9,6.7-19.1,20.3-19
		C-361,355.2-314.7,354.9-268.4,354.9z"/>
	<path d="M-150.6,250.4c44.9,6.3,44.9,6.3,44.2,54.6c-0.5,34.1-0.5,34.1-34.1,34.1c-86.3,0.1-172.6,0.2-258.9,0.2
		c-26.5,0-28.3-1.9-28.1-28.1c0.2-20,0.5-40,0.2-60.1c-0.2-15.3,6.4-24.3,21.5-28.3c86-23,171.9-46.3,257.8-69.7
		c15.7-4.3,26,0.9,29.9,16.4c4.6,17.9,14.8,38.4,9.7,53.4C-112.5,235.3-135.4,241.3-150.6,250.4z M-137.9,219.3
		c-23.1-43-36.1-48.7-62.3-28.6C-179.2,237.2-166.4,236.1-137.9,219.3z M-195.1,317.9c29.6,11,56.1-8.2,55-36.7
		c-0.1-3-3.7-8-6.4-8.5c-13.8-2.6-27.9-4.1-35.1,12.2C-186.3,295.3-190.3,306.1-195.1,317.9z M-206.9,235.8
		c-22.6-40.8-32.1-44.8-63-27.2C-250,249-233,256.6-206.9,235.8z M-299.6,271.1c-24,0.4-25.8,20.7-32.3,36.5
		c-5.4,13.4,2.6,17.6,14.1,17.5c21.5-0.2,28.1-16,33.6-33C-279.7,277.8-284.7,271.1-299.6,271.1z M-209.8,276.4
		c-27.7-14-46.8-3.3-52.1,43.1C-229.3,329.5-220.4,322.2-209.8,276.4z M-276.2,255.8c-12.9-38.6-33.7-48.3-59.9-27.7
		C-324.8,261.3-303.1,271.4-276.2,255.8z M-349.1,271.3c-6.4-4.9-14.3-14.6-24.3-17.9c-12-3.8-25.7,10.7-24.8,24.2
		c0.9,13.9,8.2,24.3,22.9,24.8C-359.6,303-352.1,292.7-349.1,271.3z"/>
	<path fill="#FFFFFF" d="M-137.9,219.3c-28.5,16.8-41.3,17.9-62.3-28.6C-174,170.6-161,176.3-137.9,219.3z"/>
	<path fill="#FFFFFF" d="M-195.1,317.9c4.8-11.8,8.8-22.5,13.5-33c7.2-16.3,21.4-14.8,35.1-12.2c2.7,0.5,6.3,5.5,6.4,8.5
		C-139,309.7-165.5,328.9-195.1,317.9z"/>
	<path fill="#FFFFFF" d="M-206.9,235.8c-26.1,20.8-43.1,13.2-63-27.2C-239,191-229.4,195-206.9,235.8z"/>
	<path fill="#FFFFFF" d="M-299.6,271.1c14.9,0.1,20,6.7,15.4,21c-5.5,17-12,32.8-33.6,33c-11.5,0.1-19.5-4.1-14.1-17.5
		C-325.5,291.7-323.6,271.4-299.6,271.1z"/>
	<path fill="#FFFFFF" d="M-209.8,276.4c-10.6,45.8-19.5,53-52.1,43.1C-256.5,273.2-237.5,262.4-209.8,276.4z"/>
	<path fill="#FFFFFF" d="M-276.2,255.8c-26.9,15.6-48.6,5.5-59.9-27.7C-309.9,207.5-289,217.1-276.2,255.8z"/>
	<path fill="#FFFFFF" d="M-349.1,271.3c-3,21.4-10.5,31.7-26.3,31.2c-14.7-0.5-22-10.9-22.9-24.8c-0.9-13.5,12.8-28.1,24.8-24.2
		C-363.5,256.7-355.5,266.4-349.1,271.3z"/>
</g>
<ellipse cx="-112.1" cy="671.6" rx="25.7" ry="22.5"/>
<ellipse cx="-27.1" cy="671.6" rx="25.7" ry="22.5"/>
<ellipse cx="55.9" cy="671.6" rx="25.7" ry="22.5"/>
</svg>
