<?xml version="1.0" encoding="utf-8"?>
<!-- Generator: Adobe Illustrator 17.1.0, SVG Export Plug-In . SVG Version: 6.00 Build 0)  -->
<!DOCTYPE svg PUBLIC "-//W3C//DTD SVG 1.1//EN" "http://www.w3.org/Graphics/SVG/1.1/DTD/svg11.dtd">
<svg version="1.1" id="Layer_1" xmlns="http://www.w3.org/2000/svg" xmlns:xlink="http://www.w3.org/1999/xlink" x="0px" y="0px"
	 viewBox="0 0 640 480" enable-background="new 0 0 640 480" xml:space="preserve">
<g>
	<path d="M360.8,5.2c6.4,2.4,13.3,4.1,19.2,7.4c15,8.5,23.7,21.7,25.1,38.9c0.9,11.5,0.2,23.1,0.2,35.3c-4.2,0-8.3,0-12.4,0
		c-4.5,0-9.1-0.1-13.6,0c-2.5,0.1-3.3-0.8-3.2-3.3c0.1-6.5,0-13.1,0-19.9c-73.3,0-146.5,0-219.9,0c0,104.9,0,209.9,0,315.1
		c83,0,165.9,0,249.1,0c0.1,1.3,0.2,2.6,0.2,3.8c0,14.3,0.1,28.7,0,43c-0.1,21.7-10.2,37.4-29.4,47.2c-4.7,2.4-10.1,3.5-15.2,5.2
		c-63.2,0-126.3,0-189.5,0c-1.1-0.3-2.1-0.7-3.2-1c-7.3-1.6-14.2-4.3-20.2-8.8c-14.7-10.9-21.6-25.8-21.7-43.9
		c-0.1-53.1,0-106.2,0-159.2c0-68.5-0.1-137.1,0-205.6c0-21.7,9.3-38.3,28.8-48.4c5-2.6,10.8-3.8,16.3-5.6
		C234.4,5.2,297.6,5.2,360.8,5.2z M242.3,428.3c0,12.8,10.5,23.6,23.3,23.8c12.8,0.2,23.9-10.8,24-23.6
		c0.1-12.6-10.9-23.7-23.5-23.8C253.3,404.5,242.4,415.3,242.3,428.3z"/>
	<path d="M515.1,215.8c0,11.6,0,22.6,0,33.9c-11.1,0-22,0-33.2,0c-0.6,2-1,3.8-1.6,5.5c-3.3,8-6.3,16.1-10.1,23.8
		c-1.8,3.5-1.3,5.4,1.3,7.9c6.3,5.9,12.4,12.2,18.5,18.3c0.4,0.4,0.7,1,1,1.3c-8,7.9-15.8,15.8-24.4,24.4
		c-5.3-5.6-10.8-11.3-16.3-16.9c-6.2-6.4-6-6-13.8-2.4c-7.3,3.3-14.9,5.9-22.5,8.5c-2.5,0.8-3.7,1.7-3.6,4.5
		c0.2,8.4,0.1,16.9,0.1,25.3c0,1.4,0,2.7,0,4.4c-11.4,0-22.4,0-33.8,0c-0.1-1.3-0.2-2.7-0.2-4c0-8.6-0.1-17.1,0-25.7
		c0-2.6-0.8-3.8-3.4-4.3c-9.8-2.2-19-5.8-27.4-11.3c-2-1.3-3.4-1.3-5.1,0.6c-6.8,7.2-13.8,14.2-20.7,21.4
		c-8.2-8.6-15.8-16.5-23.8-25c2.9-2.9,6.5-6.6,10.1-10.3c3.5-3.5,7-6.8,10.3-10.4c0.8-0.9,1.4-2.9,0.9-3.7
		c-5.8-9.8-10.1-20.2-12.4-31.7c-11.2,0-22.2,0-33.5,0c0-11.4,0-22.4,0-33.8c1.4-0.1,2.7-0.2,4.1-0.2c8.8,0,17.6-0.1,26.4,0
		c2.1,0,3.2-0.6,3.6-2.8c2.2-10.3,6.1-19.9,11.8-28.8c1.6-2.6-0.3-3.4-1.4-4.6c-6.1-6.2-12.3-12.3-18.4-18.4c-0.8-0.8-1.5-1.7-2-2.2
		c8-8.1,15.8-16,24-24.3c5.9,5.9,11.8,11.9,17.6,17.9c5.3,5.5,5.1,5.1,11.8,2c7.6-3.5,15.5-6.4,23.4-9.1c2.8-0.9,3.8-1.9,3.7-4.9
		c-0.2-8.7,0-17.4-0.1-26c0-2.6,0.5-3.8,3.5-3.8c9.2,0.2,18.4,0.2,27.6,0c2.7,0,3.4,1,3.4,3.5c-0.1,8.9,0.1,17.9-0.1,26.8
		c-0.1,2.7,1,3.7,3.5,4.2c9.7,1.9,18.7,5.7,27,11.1c2.1,1.4,3.3,1.4,5.1-0.5c6.8-7.2,13.7-14.3,20.4-21.1
		c8.4,8.4,16.2,16.3,24.5,24.6c-7.4,7-15.4,14.6-23.4,22.2c6.9,10.4,11.3,20.8,13.6,31.9c0.5,2.2,1.9,2.3,3.6,2.2c8.7,0,17.4,0,26,0
		C512,215.8,513.4,215.8,515.1,215.8z M356,234.1c1,21.3,18.4,36.5,38,35.9c21.2-0.6,37.4-18.3,36.3-38.7
		c-1.1-21-18.2-36.1-37.8-35.7C370.5,196.1,355.4,214.4,356,234.1z"/>
	<path d="M246.8,198.4c0,13.1,0,26.2,0,39.5c-21.8,0-43.5,0-65.4,0c0-13.1,0-26.1,0-39.5C203.1,198.4,224.9,198.4,246.8,198.4z"/>
	<path d="M181.3,345.8c0-13.4,0-26.4,0-39.6c21.8,0,43.5,0,65.5,0c0,13.2,0,26.3,0,39.6C224.9,345.8,203.3,345.8,181.3,345.8z"/>
	<path d="M246.8,95.3c0,13.1,0,26.2,0,39.4c-21.8,0-43.4,0-65.4,0c0-13.2,0-26.2,0-39.4C203.2,95.3,224.9,95.3,246.8,95.3z"/>
</g>
<g>
	<path d="M285,1053c19.7-29.1,43.3-55.1,67-80.9c53.3-58.1,107.3-115.7,161.1-173.5c23.5-25.2,47.2-50.2,70.5-75.6
		c8.9-9.7,17.2-20.1,24.9-30.9c13.2-18.3,25.7-37.2,38.5-55.8c0.8-1.1,1.4-2.3,2.8-4.6c-12.5-3.8-24.2-7.7-36.2-10.8
		c-18.3-4.7-37-5.6-55.8-6.3c-9.8-0.4-16-8.5-13.8-17.6c1.6-6.6,7.3-11,15.1-11c35.7,0.3,70.4,6,103.1,20.9c3.6,1.6,5.6,1.4,8.5-1.5
		c11.3-11,24.5-19.1,40.5-21.4c30.2-4.3,52.7,22.8,43.3,51.9c-3.5,11-8.9,20.9-16.7,29.4c-1.7,1.9-2,3.2-0.6,5.5
		c24.2,40.3,21.3,80.1-2.4,119.4c-10.4,17.4-24.3,32.1-38.3,46.6c-14.2,14.7-28.6,29.3-42.1,44.6C641.6,896,631,912.2,628,931.8
		c-4.1,26.6,0.3,51.1,22.1,69.4c12.4,10.4,27.5,15.3,43.2,18.5c14.7,3,29.6,3.1,44.5,2.7c10.4-0.3,17.3,7.5,15.4,17
		c-1.2,6.1-6,11-12.8,11.4c-35,2.2-68.9-1.6-99.4-20.7c-25.2-15.8-38.5-39.3-42.2-68.6c-4.2-32.5,4.8-61.3,24.5-86.8
		c10.5-13.6,22.1-26.4,33.9-38.9c16.8-17.8,34.8-34.3,49-54.5c15.6-22.1,23-46.2,16.2-73.1c-1.9-7.5-5.4-14.5-8.4-22.1
		c-1.6,0.8-2.2,1-2.6,1.3c-24.3,16.8-49.3,32.7-72.6,50.6c-18.9,14.6-36.2,31.4-53.8,47.7c-69.2,64.3-137.8,129.1-207.4,193
		c-26.9,24.7-55.7,47.4-83.7,71c-2.2,1.9-4.8,3.3-7.2,4.9C286.2,1054.2,285.6,1053.6,285,1053z M667.5,641.5
		c-7.4,18.3,3.2,33.8,21.6,33.1c19.1-0.8,40.9-21.4,42.8-40.5c1.4-14-5.3-24.4-16.8-26c-11.7-1.6-21.6,2.5-31.1,9.9
		c1.9,1.4,3.5,2.5,5.1,3.6c4.8,3.6,9.7,7,14.2,11c5,4.4,6.2,10.9,3.9,16.3c-4.1,9.5-14.6,11.5-23.4,4.7
		C678.4,649.6,673.1,645.7,667.5,641.5z"/>
</g>
<image overflow="visible" width="128" height="105" xlink:href="../../../Icons+References/Screen Shot 2016-04-08 at 2.47.39 am.png"  transform="matrix(4.2141 0 0 4.2141 858.5635 568.6119)">
</image>
<image overflow="visible" width="122" height="110" xlink:href="../../../Icons+References/Screen Shot 2016-04-08 at 2.47.32 am.png"  transform="matrix(4.4998 0 0 4.4998 924.1152 -81.3113)">
</image>
<g>
	<path d="M-331.2,674.2c-14.4-21.5-34.2-24.8-56.5-24.5c-28.9,0.4-51.4-16.6-59.2-42.1c-8.1-26.8,2.1-54.9,25.7-70.7
		c36-24,81.6-4.8,91.1,37.1c2.7,11.9,10,23.9,18.1,33.4c56.5,67.2,130.7,110.7,206.4,151.9c7.1,3.9,13.9,8.5,20.7,12.9
		c1.2,0.8,1.7,2.5,2.6,3.8c-18.3,27.5-42.3,34.6-71,19.3c-34.5-18.5-68.1-38.5-102.2-57.5c-38.6-21.6-63.7-9.8-71.9,33.4
		c-5.3,28.3-23.3,48.3-47.5,52.9c-24.6,4.7-52.6-7.5-65.6-28.6c-13.4-21.9-13.5-51.7,5.2-70.4c11-11,28-19.3,43.5-21.6
		C-365.1,699.4-352.3,696.1-331.2,674.2z M-358.6,760.7c-0.8-15.7-8.7-27.8-27.7-28.1c-19-0.4-31.6,9.8-32.3,28.9
		c-0.7,18.8,10.6,30.3,29.7,31.7C-371.3,794.6-358.8,781.4-358.6,760.7z M-358.6,588.4c-0.4-18.2-14-32.8-30.3-31
		c-18.7,2.1-29.3,13.7-29.9,32.5c-0.6,16.4,15.4,30.4,32.7,29C-367.9,617.4-358.4,607-358.6,588.4z"/>
	<path d="M-80,572.5c-45.6,27.1-88.1,54.4-132.6,78c-23.9,12.6-24.9-16.5-34.8-27.5c-2.4-2.7,2.9-17.8,8.5-21.4
		c25.4-16.2,51.9-30.9,78.4-45.2C-127.3,538.4-111,541.6-80,572.5z"/>
</g>
<g>
	<path d="M-268.4,354.9c46.3,0,92.7,0.5,139-0.3c17-0.3,24,5.6,23.2,22.7c-0.9,22.8-0.6,45.6-0.6,68.4c0,17.6-7.8,26.9-26.2,26.9
		c-89.2-0.1-178.4-0.2-267.6,0c-18.2,0-26.7-8.3-26.6-26.4c0.1-24.2,0.3-48.4-0.4-72.6c-0.4-14.9,6.7-19.1,20.3-19
		C-361,355.2-314.7,354.9-268.4,354.9z"/>
	<path d="M-150.6,250.4c44.9,6.3,44.9,6.3,44.2,54.6c-0.5,34.1-0.5,34.1-34.1,34.1c-86.3,0.1-172.6,0.2-258.9,0.2
		c-26.5,0-28.3-1.9-28.1-28.1c0.2-20,0.5-40,0.2-60.1c-0.2-15.3,6.4-24.3,21.5-28.3c86-23,171.9-46.3,257.8-69.7
		c15.7-4.3,26,0.9,29.9,16.4c4.6,17.9,14.8,38.4,9.7,53.4C-112.5,235.3-135.4,241.3-150.6,250.4z M-137.9,219.3
		c-23.1-43-36.1-48.7-62.3-28.6C-179.2,237.2-166.4,236.1-137.9,219.3z M-195.1,317.9c29.6,11,56.1-8.2,55-36.7
		c-0.1-3-3.7-8-6.4-8.5c-13.8-2.6-27.9-4.1-35.1,12.2C-186.3,295.3-190.3,306.1-195.1,317.9z M-206.9,235.8
		c-22.6-40.8-32.1-44.8-63-27.2C-250,249-233,256.6-206.9,235.8z M-299.6,271.1c-24,0.4-25.8,20.7-32.3,36.5
		c-5.4,13.4,2.6,17.6,14.1,17.5c21.5-0.2,28.1-16,33.6-33C-279.7,277.8-284.7,271.1-299.6,271.1z M-209.8,276.4
		c-27.7-14-46.8-3.3-52.1,43.1C-229.3,329.5-220.4,322.2-209.8,276.4z M-276.2,255.8c-12.9-38.6-33.7-48.3-59.9-27.7
		C-324.8,261.3-303.1,271.4-276.2,255.8z M-349.1,271.3c-6.4-4.9-14.3-14.6-24.3-17.9c-12-3.8-25.7,10.7-24.8,24.2
		c0.9,13.9,8.2,24.3,22.9,24.8C-359.6,303-352.1,292.7-349.1,271.3z"/>
	<path fill="#FFFFFF" d="M-137.9,219.3c-28.5,16.8-41.3,17.9-62.3-28.6C-174,170.6-161,176.3-137.9,219.3z"/>
	<path fill="#FFFFFF" d="M-195.1,317.9c4.8-11.8,8.8-22.5,13.5-33c7.2-16.3,21.4-14.8,35.1-12.2c2.7,0.5,6.3,5.5,6.4,8.5
		C-139,309.7-165.5,328.9-195.1,317.9z"/>
	<path fill="#FFFFFF" d="M-206.9,235.8c-26.1,20.8-43.1,13.2-63-27.2C-239,191-229.4,195-206.9,235.8z"/>
	<path fill="#FFFFFF" d="M-299.6,271.1c14.9,0.1,20,6.7,15.4,21c-5.5,17-12,32.8-33.6,33c-11.5,0.1-19.5-4.1-14.1-17.5
		C-325.5,291.7-323.6,271.4-299.6,271.1z"/>
	<path fill="#FFFFFF" d="M-209.8,276.4c-10.6,45.8-19.5,53-52.1,43.1C-256.5,273.2-237.5,262.4-209.8,276.4z"/>
	<path fill="#FFFFFF" d="M-276.2,255.8c-26.9,15.6-48.6,5.5-59.9-27.7C-309.9,207.5-289,217.1-276.2,255.8z"/>
	<path fill="#FFFFFF" d="M-349.1,271.3c-3,21.4-10.5,31.7-26.3,31.2c-14.7-0.5-22-10.9-22.9-24.8c-0.9-13.5,12.8-28.1,24.8-24.2
		C-363.5,256.7-355.5,266.4-349.1,271.3z"/>
</g>
<ellipse cx="-112.1" cy="671.6" rx="25.7" ry="22.5"/>
<ellipse cx="-27.1" cy="671.6" rx="25.7" ry="22.5"/>
<ellipse cx="55.9" cy="671.6" rx="25.7" ry="22.5"/>
<g>
	<circle fill="none" stroke="#000000" stroke-width="10" stroke-miterlimit="10" cx="-472.4" cy="-102.9" r="118.5"/>
	<circle fill="none" stroke="#000000" stroke-width="10" stroke-miterlimit="10" cx="-547.4" cy="-220.9" r="118.5"/>
	<circle fill="none" stroke="#000000" stroke-width="10" stroke-miterlimit="10" cx="-394.4" cy="-220.9" r="118.5"/>
	<path d="M-588.9-108.4c-0.9-0.1-1.6-1-1.2-1.9l0,0l6.6-33.9l16.7-30.2l51.7-38.9l7.7,42.4c0,0,26,34.5,27,36s5.8,7.7,5.8,7.7
		l-58,24L-588.9-108.4z"/>
	<path d="M-354-108.4c0.9-0.1,1.6-1,1.2-1.9l0,0l-6.6-33.9l-16.7-30.2l-51.7-38.9l-7.7,42.4c0,0-26,34.5-27,36s-5.8,7.7-5.8,7.7
		l58,24L-354-108.4z"/>
	<path d="M-471.9-311.7c-0.5-0.6-1.5-0.6-2,0l0,0l-21.4,21l-13.9,26.5l-3.1,49.6l37.6-8c0,0,33.9,2.1,35.4,2.1
		c1.6,0,8.3,0.5,8.3,0.5l-10.4-53.6L-471.9-311.7z"/>
</g>
</svg>
